<mxfile host="app.diagrams.net" agent="Mozilla/5.0 (Windows NT 10.0; Win64; x64) AppleWebKit/537.36 (KHTML, like Gecko) Chrome/129.0.0.0 Safari/537.36" version="24.7.17">
  <diagram name="Page-1" id="2YBvvXClWsGukQMizWep">
    <mxGraphModel grid="1" page="1" gridSize="10" guides="1" tooltips="1" connect="1" arrows="1" fold="1" pageScale="1" pageWidth="850" pageHeight="1100" math="0" shadow="0">
      <root>
        <mxCell id="0" />
        <mxCell id="1" parent="0" />
        <mxCell id="5jQq0_R5dznM5S6B8pMf-5" value="Patients" style="shape=umlLifeline;perimeter=lifelinePerimeter;whiteSpace=wrap;html=1;container=1;dropTarget=0;collapsible=0;recursiveResize=0;outlineConnect=0;portConstraint=eastwest;newEdgeStyle={&quot;curved&quot;:0,&quot;rounded&quot;:0};" vertex="1" parent="1">
          <mxGeometry x="80" y="60" width="100" height="350" as="geometry" />
        </mxCell>
        <mxCell id="5jQq0_R5dznM5S6B8pMf-20" value="" style="html=1;points=[[0,0,0,0,5],[0,1,0,0,-5],[1,0,0,0,5],[1,1,0,0,-5]];perimeter=orthogonalPerimeter;outlineConnect=0;targetShapes=umlLifeline;portConstraint=eastwest;newEdgeStyle={&quot;curved&quot;:0,&quot;rounded&quot;:0};" vertex="1" parent="5jQq0_R5dznM5S6B8pMf-5">
          <mxGeometry x="45" y="50" width="10" height="230" as="geometry" />
        </mxCell>
        <mxCell id="5jQq0_R5dznM5S6B8pMf-6" value="&lt;div&gt;&amp;nbsp;&lt;/div&gt;&lt;div&gt;Receptionist&lt;/div&gt;&lt;div&gt;&lt;br&gt;&lt;/div&gt;" style="shape=umlLifeline;perimeter=lifelinePerimeter;whiteSpace=wrap;html=1;container=1;dropTarget=0;collapsible=0;recursiveResize=0;outlineConnect=0;portConstraint=eastwest;newEdgeStyle={&quot;curved&quot;:0,&quot;rounded&quot;:0};" vertex="1" parent="1">
          <mxGeometry x="260" y="60" width="100" height="300" as="geometry" />
        </mxCell>
        <mxCell id="5jQq0_R5dznM5S6B8pMf-26" value="" style="html=1;points=[[0,0,0,0,5],[0,1,0,0,-5],[1,0,0,0,5],[1,1,0,0,-5]];perimeter=orthogonalPerimeter;outlineConnect=0;targetShapes=umlLifeline;portConstraint=eastwest;newEdgeStyle={&quot;curved&quot;:0,&quot;rounded&quot;:0};" vertex="1" parent="5jQq0_R5dznM5S6B8pMf-6">
          <mxGeometry x="45" y="50" width="10" height="120" as="geometry" />
        </mxCell>
        <mxCell id="5jQq0_R5dznM5S6B8pMf-8" value="Doctor" style="shape=umlLifeline;perimeter=lifelinePerimeter;whiteSpace=wrap;html=1;container=1;dropTarget=0;collapsible=0;recursiveResize=0;outlineConnect=0;portConstraint=eastwest;newEdgeStyle={&quot;curved&quot;:0,&quot;rounded&quot;:0};" vertex="1" parent="1">
          <mxGeometry x="440" y="60" width="100" height="300" as="geometry" />
        </mxCell>
        <mxCell id="5jQq0_R5dznM5S6B8pMf-32" value="" style="html=1;points=[[0,0,0,0,5],[0,1,0,0,-5],[1,0,0,0,5],[1,1,0,0,-5]];perimeter=orthogonalPerimeter;outlineConnect=0;targetShapes=umlLifeline;portConstraint=eastwest;newEdgeStyle={&quot;curved&quot;:0,&quot;rounded&quot;:0};" vertex="1" parent="5jQq0_R5dznM5S6B8pMf-8">
          <mxGeometry x="45" y="50" width="10" height="210" as="geometry" />
        </mxCell>
        <mxCell id="5jQq0_R5dznM5S6B8pMf-10" value="&lt;div&gt;&lt;br&gt;&lt;/div&gt;&lt;div&gt;&amp;nbsp;Nurse&lt;/div&gt;&lt;div&gt;&lt;br&gt;&lt;/div&gt;" style="shape=umlLifeline;perimeter=lifelinePerimeter;whiteSpace=wrap;html=1;container=1;dropTarget=0;collapsible=0;recursiveResize=0;outlineConnect=0;portConstraint=eastwest;newEdgeStyle={&quot;curved&quot;:0,&quot;rounded&quot;:0};" vertex="1" parent="1">
          <mxGeometry x="620" y="60" width="100" height="300" as="geometry" />
        </mxCell>
        <mxCell id="5jQq0_R5dznM5S6B8pMf-12" value="&lt;div&gt;&amp;nbsp;&amp;nbsp;&lt;/div&gt;&lt;div&gt;Laboratory Technician&lt;/div&gt;&lt;div&gt;&lt;br&gt;&lt;/div&gt;" style="shape=umlLifeline;perimeter=lifelinePerimeter;whiteSpace=wrap;html=1;container=1;dropTarget=0;collapsible=0;recursiveResize=0;outlineConnect=0;portConstraint=eastwest;newEdgeStyle={&quot;curved&quot;:0,&quot;rounded&quot;:0};" vertex="1" parent="1">
          <mxGeometry x="800" y="60" width="100" height="300" as="geometry" />
        </mxCell>
        <mxCell id="5jQq0_R5dznM5S6B8pMf-14" value="&lt;div&gt;&lt;br&gt;&lt;/div&gt;&lt;div&gt;Pharmacist&lt;/div&gt;&lt;div&gt;&lt;br&gt;&lt;/div&gt;" style="shape=umlLifeline;perimeter=lifelinePerimeter;whiteSpace=wrap;html=1;container=1;dropTarget=0;collapsible=0;recursiveResize=0;outlineConnect=0;portConstraint=eastwest;newEdgeStyle={&quot;curved&quot;:0,&quot;rounded&quot;:0};" vertex="1" parent="1">
          <mxGeometry x="980" y="60" width="100" height="320" as="geometry" />
        </mxCell>
        <mxCell id="5jQq0_R5dznM5S6B8pMf-41" value="" style="html=1;points=[[0,0,0,0,5],[0,1,0,0,-5],[1,0,0,0,5],[1,1,0,0,-5]];perimeter=orthogonalPerimeter;outlineConnect=0;targetShapes=umlLifeline;portConstraint=eastwest;newEdgeStyle={&quot;curved&quot;:0,&quot;rounded&quot;:0};" vertex="1" parent="5jQq0_R5dznM5S6B8pMf-14">
          <mxGeometry x="45" y="50" width="10" height="240" as="geometry" />
        </mxCell>
        <mxCell id="5jQq0_R5dznM5S6B8pMf-16" value="&lt;div&gt;&lt;div&gt;&lt;br&gt;&lt;/div&gt;&lt;div&gt;System&lt;/div&gt;&lt;/div&gt;&lt;div&gt;&lt;br&gt;&lt;/div&gt;" style="shape=umlLifeline;perimeter=lifelinePerimeter;whiteSpace=wrap;html=1;container=1;dropTarget=0;collapsible=0;recursiveResize=0;outlineConnect=0;portConstraint=eastwest;newEdgeStyle={&quot;curved&quot;:0,&quot;rounded&quot;:0};" vertex="1" parent="1">
          <mxGeometry x="1160" y="60" width="100" height="300" as="geometry" />
        </mxCell>
        <mxCell id="5jQq0_R5dznM5S6B8pMf-23" value="" style="html=1;points=[[0,0,0,0,5],[0,1,0,0,-5],[1,0,0,0,5],[1,1,0,0,-5]];perimeter=orthogonalPerimeter;outlineConnect=0;targetShapes=umlLifeline;portConstraint=eastwest;newEdgeStyle={&quot;curved&quot;:0,&quot;rounded&quot;:0};" vertex="1" parent="5jQq0_R5dznM5S6B8pMf-16">
          <mxGeometry x="45" y="60" width="10" height="220" as="geometry" />
        </mxCell>
        <mxCell id="5jQq0_R5dznM5S6B8pMf-18" value="&lt;div&gt;&lt;div&gt;&lt;br&gt;&lt;/div&gt;&lt;div&gt;Medical Records&lt;/div&gt;&lt;/div&gt;&lt;div&gt;&lt;br&gt;&lt;/div&gt;" style="shape=umlLifeline;perimeter=lifelinePerimeter;whiteSpace=wrap;html=1;container=1;dropTarget=0;collapsible=0;recursiveResize=0;outlineConnect=0;portConstraint=eastwest;newEdgeStyle={&quot;curved&quot;:0,&quot;rounded&quot;:0};" vertex="1" parent="1">
          <mxGeometry x="1340" y="60" width="100" height="300" as="geometry" />
        </mxCell>
        <mxCell id="5jQq0_R5dznM5S6B8pMf-36" value="" style="html=1;points=[[0,0,0,0,5],[0,1,0,0,-5],[1,0,0,0,5],[1,1,0,0,-5]];perimeter=orthogonalPerimeter;outlineConnect=0;targetShapes=umlLifeline;portConstraint=eastwest;newEdgeStyle={&quot;curved&quot;:0,&quot;rounded&quot;:0};" vertex="1" parent="5jQq0_R5dznM5S6B8pMf-18">
          <mxGeometry x="45" y="60" width="10" height="100" as="geometry" />
        </mxCell>
        <mxCell id="5jQq0_R5dznM5S6B8pMf-21" value="&lt;div&gt;&lt;br&gt;&lt;/div&gt;&lt;div&gt;&lt;br&gt;&lt;/div&gt;&lt;div&gt;&lt;br&gt;&lt;/div&gt;&lt;div&gt;&lt;br&gt;&lt;/div&gt;&lt;div&gt;&lt;br&gt;&lt;/div&gt;" style="html=1;verticalAlign=bottom;endArrow=block;curved=0;rounded=0;" edge="1" parent="1" source="5jQq0_R5dznM5S6B8pMf-20">
          <mxGeometry width="80" relative="1" as="geometry">
            <mxPoint x="210" y="280" as="sourcePoint" />
            <mxPoint x="300" y="127" as="targetPoint" />
          </mxGeometry>
        </mxCell>
        <mxCell id="5jQq0_R5dznM5S6B8pMf-22" value="&lt;div&gt;Register&lt;/div&gt;&lt;div&gt;&lt;br&gt;&lt;/div&gt;" style="edgeLabel;html=1;align=center;verticalAlign=middle;resizable=0;points=[];" connectable="0" vertex="1" parent="5jQq0_R5dznM5S6B8pMf-21">
          <mxGeometry x="-0.0115" relative="1" as="geometry">
            <mxPoint as="offset" />
          </mxGeometry>
        </mxCell>
        <mxCell id="5jQq0_R5dznM5S6B8pMf-25" value="&lt;div&gt;Create Patient Record&lt;/div&gt;" style="html=1;verticalAlign=bottom;endArrow=block;curved=0;rounded=0;entryX=0;entryY=0.088;entryDx=0;entryDy=0;entryPerimeter=0;" edge="1" parent="1" target="5jQq0_R5dznM5S6B8pMf-23">
          <mxGeometry width="80" relative="1" as="geometry">
            <mxPoint x="320" y="134" as="sourcePoint" />
            <mxPoint x="860" y="280" as="targetPoint" />
          </mxGeometry>
        </mxCell>
        <mxCell id="5jQq0_R5dznM5S6B8pMf-30" value="" style="html=1;verticalAlign=bottom;endArrow=block;curved=0;rounded=0;" edge="1" parent="1" target="5jQq0_R5dznM5S6B8pMf-20">
          <mxGeometry width="80" relative="1" as="geometry">
            <mxPoint x="300" y="150" as="sourcePoint" />
            <mxPoint x="550" y="280" as="targetPoint" />
            <Array as="points" />
          </mxGeometry>
        </mxCell>
        <mxCell id="5jQq0_R5dznM5S6B8pMf-31" value="Registration Complete" style="edgeLabel;html=1;align=center;verticalAlign=middle;resizable=0;points=[];" connectable="0" vertex="1" parent="5jQq0_R5dznM5S6B8pMf-30">
          <mxGeometry x="-0.0182" y="-1" relative="1" as="geometry">
            <mxPoint as="offset" />
          </mxGeometry>
        </mxCell>
        <mxCell id="5jQq0_R5dznM5S6B8pMf-33" value="" style="html=1;verticalAlign=bottom;endArrow=block;curved=0;rounded=0;" edge="1" parent="1">
          <mxGeometry width="80" relative="1" as="geometry">
            <mxPoint x="495" y="190" as="sourcePoint" />
            <mxPoint x="1205" y="190" as="targetPoint" />
          </mxGeometry>
        </mxCell>
        <mxCell id="5jQq0_R5dznM5S6B8pMf-35" value="&lt;div&gt;Request Medical Records&lt;/div&gt;&lt;div&gt;&lt;br&gt;&lt;/div&gt;" style="edgeLabel;html=1;align=center;verticalAlign=middle;resizable=0;points=[];" connectable="0" vertex="1" parent="5jQq0_R5dznM5S6B8pMf-33">
          <mxGeometry x="-0.0141" y="-1" relative="1" as="geometry">
            <mxPoint as="offset" />
          </mxGeometry>
        </mxCell>
        <mxCell id="5jQq0_R5dznM5S6B8pMf-37" value="" style="html=1;verticalAlign=bottom;endArrow=block;curved=0;rounded=0;" edge="1" parent="1" source="5jQq0_R5dznM5S6B8pMf-23">
          <mxGeometry width="80" relative="1" as="geometry">
            <mxPoint x="1190" y="280" as="sourcePoint" />
            <mxPoint x="1380" y="130" as="targetPoint" />
            <Array as="points" />
          </mxGeometry>
        </mxCell>
        <mxCell id="5jQq0_R5dznM5S6B8pMf-38" value="Retrieve Records" style="edgeLabel;html=1;align=center;verticalAlign=middle;resizable=0;points=[];" connectable="0" vertex="1" parent="5jQq0_R5dznM5S6B8pMf-37">
          <mxGeometry x="-0.0303" y="-1" relative="1" as="geometry">
            <mxPoint as="offset" />
          </mxGeometry>
        </mxCell>
        <mxCell id="5jQq0_R5dznM5S6B8pMf-39" value="" style="html=1;verticalAlign=bottom;endArrow=block;curved=0;rounded=0;" edge="1" parent="1">
          <mxGeometry width="80" relative="1" as="geometry">
            <mxPoint x="1384.5" y="158" as="sourcePoint" />
            <mxPoint x="1215" y="158" as="targetPoint" />
            <Array as="points">
              <mxPoint x="1265" y="158" />
              <mxPoint x="1245" y="158" />
            </Array>
          </mxGeometry>
        </mxCell>
        <mxCell id="5jQq0_R5dznM5S6B8pMf-40" value="&lt;div&gt;Send Records&lt;/div&gt;&lt;div&gt;&lt;br&gt;&lt;/div&gt;" style="edgeLabel;html=1;align=center;verticalAlign=middle;resizable=0;points=[];" connectable="0" vertex="1" parent="5jQq0_R5dznM5S6B8pMf-39">
          <mxGeometry x="0.0324" y="-1" relative="1" as="geometry">
            <mxPoint as="offset" />
          </mxGeometry>
        </mxCell>
        <mxCell id="5jQq0_R5dznM5S6B8pMf-43" value="" style="html=1;verticalAlign=bottom;endArrow=block;curved=0;rounded=0;" edge="1" parent="1">
          <mxGeometry width="80" relative="1" as="geometry">
            <mxPoint x="1205.5" y="159.5" as="sourcePoint" />
            <mxPoint x="316" y="159.5" as="targetPoint" />
          </mxGeometry>
        </mxCell>
        <mxCell id="5jQq0_R5dznM5S6B8pMf-44" value="&lt;div&gt;Confirm Registration&lt;/div&gt;&lt;div&gt;&lt;br&gt;&lt;/div&gt;" style="edgeLabel;html=1;align=center;verticalAlign=middle;resizable=0;points=[];" connectable="0" vertex="1" parent="5jQq0_R5dznM5S6B8pMf-43">
          <mxGeometry x="-0.0017" y="-1" relative="1" as="geometry">
            <mxPoint as="offset" />
          </mxGeometry>
        </mxCell>
        <mxCell id="5jQq0_R5dznM5S6B8pMf-42" value="" style="html=1;points=[[0,0,0,0,5],[0,1,0,0,-5],[1,0,0,0,5],[1,1,0,0,-5]];perimeter=orthogonalPerimeter;outlineConnect=0;targetShapes=umlLifeline;portConstraint=eastwest;newEdgeStyle={&quot;curved&quot;:0,&quot;rounded&quot;:0};" vertex="1" parent="1">
          <mxGeometry x="845" y="130" width="10" height="200" as="geometry" />
        </mxCell>
        <mxCell id="5jQq0_R5dznM5S6B8pMf-45" value="" style="html=1;points=[[0,0,0,0,5],[0,1,0,0,-5],[1,0,0,0,5],[1,1,0,0,-5]];perimeter=orthogonalPerimeter;outlineConnect=0;targetShapes=umlLifeline;portConstraint=eastwest;newEdgeStyle={&quot;curved&quot;:0,&quot;rounded&quot;:0};" vertex="1" parent="1">
          <mxGeometry x="665" y="120" width="10" height="220" as="geometry" />
        </mxCell>
        <mxCell id="5jQq0_R5dznM5S6B8pMf-47" value="" style="html=1;verticalAlign=bottom;endArrow=block;curved=0;rounded=0;" edge="1" parent="1" target="5jQq0_R5dznM5S6B8pMf-32">
          <mxGeometry x="-0.0007" width="80" relative="1" as="geometry">
            <mxPoint x="1200" y="210" as="sourcePoint" />
            <mxPoint x="970" y="320" as="targetPoint" />
            <mxPoint as="offset" />
          </mxGeometry>
        </mxCell>
        <mxCell id="5jQq0_R5dznM5S6B8pMf-48" value="&lt;div&gt;&amp;nbsp;Display Medical Records&lt;/div&gt;&lt;div&gt;&lt;br&gt;&lt;/div&gt;" style="edgeLabel;html=1;align=center;verticalAlign=middle;resizable=0;points=[];" connectable="0" vertex="1" parent="5jQq0_R5dznM5S6B8pMf-47">
          <mxGeometry x="-0.1896" relative="1" as="geometry">
            <mxPoint x="1" as="offset" />
          </mxGeometry>
        </mxCell>
        <mxCell id="5jQq0_R5dznM5S6B8pMf-50" value="" style="html=1;verticalAlign=bottom;endArrow=block;curved=0;rounded=0;" edge="1" parent="1">
          <mxGeometry width="80" relative="1" as="geometry">
            <mxPoint x="675" y="240" as="sourcePoint" />
            <mxPoint x="1205" y="240" as="targetPoint" />
          </mxGeometry>
        </mxCell>
        <mxCell id="5jQq0_R5dznM5S6B8pMf-51" value="&lt;div&gt;Request Medical Records&lt;/div&gt;&lt;div&gt;&lt;br&gt;&lt;/div&gt;" style="edgeLabel;html=1;align=center;verticalAlign=middle;resizable=0;points=[];" connectable="0" vertex="1" parent="5jQq0_R5dznM5S6B8pMf-50">
          <mxGeometry x="-0.0038" y="2" relative="1" as="geometry">
            <mxPoint as="offset" />
          </mxGeometry>
        </mxCell>
        <mxCell id="5jQq0_R5dznM5S6B8pMf-53" value="" style="html=1;verticalAlign=bottom;endArrow=block;curved=0;rounded=0;exitX=0;exitY=1;exitDx=0;exitDy=-5;exitPerimeter=0;" edge="1" parent="1">
          <mxGeometry width="80" relative="1" as="geometry">
            <mxPoint x="1202" y="265" as="sourcePoint" />
            <mxPoint x="677" y="265" as="targetPoint" />
          </mxGeometry>
        </mxCell>
        <mxCell id="5jQq0_R5dznM5S6B8pMf-55" value="&lt;div&gt;Display Medical Records&lt;/div&gt;&lt;div&gt;&lt;br&gt;&lt;/div&gt;" style="edgeLabel;html=1;align=center;verticalAlign=middle;resizable=0;points=[];" connectable="0" vertex="1" parent="5jQq0_R5dznM5S6B8pMf-53">
          <mxGeometry x="0.0133" y="1" relative="1" as="geometry">
            <mxPoint as="offset" />
          </mxGeometry>
        </mxCell>
        <mxCell id="5jQq0_R5dznM5S6B8pMf-56" value="" style="html=1;verticalAlign=bottom;endArrow=block;curved=0;rounded=0;" edge="1" parent="1">
          <mxGeometry width="80" relative="1" as="geometry">
            <mxPoint x="494.5" y="293" as="sourcePoint" />
            <mxPoint x="845" y="293" as="targetPoint" />
          </mxGeometry>
        </mxCell>
        <mxCell id="5jQq0_R5dznM5S6B8pMf-57" value="&lt;div&gt;Request Lab Test&lt;/div&gt;&lt;div&gt;&lt;br&gt;&lt;/div&gt;" style="edgeLabel;html=1;align=center;verticalAlign=middle;resizable=0;points=[];" connectable="0" vertex="1" parent="5jQq0_R5dznM5S6B8pMf-56">
          <mxGeometry x="0.1897" relative="1" as="geometry">
            <mxPoint x="1" as="offset" />
          </mxGeometry>
        </mxCell>
        <mxCell id="5jQq0_R5dznM5S6B8pMf-58" value="" style="html=1;verticalAlign=bottom;endArrow=block;curved=0;rounded=0;" edge="1" parent="1" target="5jQq0_R5dznM5S6B8pMf-23">
          <mxGeometry width="80" relative="1" as="geometry">
            <mxPoint x="856" y="301" as="sourcePoint" />
            <mxPoint x="1200" y="300" as="targetPoint" />
          </mxGeometry>
        </mxCell>
        <mxCell id="5jQq0_R5dznM5S6B8pMf-61" value="provides lab tests" style="edgeLabel;html=1;align=center;verticalAlign=middle;resizable=0;points=[];" connectable="0" vertex="1" parent="5jQq0_R5dznM5S6B8pMf-58">
          <mxGeometry x="0.4212" y="-4" relative="1" as="geometry">
            <mxPoint as="offset" />
          </mxGeometry>
        </mxCell>
        <mxCell id="5jQq0_R5dznM5S6B8pMf-64" value="" style="html=1;verticalAlign=bottom;endArrow=block;curved=0;rounded=0;" edge="1" parent="1">
          <mxGeometry width="80" relative="1" as="geometry">
            <mxPoint x="1205" y="180" as="sourcePoint" />
            <mxPoint x="1029.5" y="180" as="targetPoint" />
          </mxGeometry>
        </mxCell>
        <mxCell id="5jQq0_R5dznM5S6B8pMf-65" value="&lt;div&gt;&amp;nbsp;give Prescription&lt;/div&gt;&lt;div&gt;data&lt;/div&gt;" style="edgeLabel;html=1;align=center;verticalAlign=middle;resizable=0;points=[];" connectable="0" vertex="1" parent="5jQq0_R5dznM5S6B8pMf-64">
          <mxGeometry x="-0.0655" relative="1" as="geometry">
            <mxPoint y="4" as="offset" />
          </mxGeometry>
        </mxCell>
        <mxCell id="5jQq0_R5dznM5S6B8pMf-67" value="" style="html=1;verticalAlign=bottom;endArrow=block;curved=0;rounded=0;" edge="1" parent="1">
          <mxGeometry width="80" relative="1" as="geometry">
            <mxPoint x="1025" y="331" as="sourcePoint" />
            <mxPoint x="140" y="331" as="targetPoint" />
          </mxGeometry>
        </mxCell>
        <mxCell id="5jQq0_R5dznM5S6B8pMf-68" value="&lt;div&gt;Dispense Medication&lt;/div&gt;&lt;div&gt;&lt;br&gt;&lt;/div&gt;" style="edgeLabel;html=1;align=center;verticalAlign=middle;resizable=0;points=[];" connectable="0" vertex="1" parent="5jQq0_R5dznM5S6B8pMf-67">
          <mxGeometry x="-0.0056" y="2" relative="1" as="geometry">
            <mxPoint as="offset" />
          </mxGeometry>
        </mxCell>
        <mxCell id="5jQq0_R5dznM5S6B8pMf-69" value="" style="html=1;verticalAlign=bottom;endArrow=block;curved=0;rounded=0;" edge="1" parent="1">
          <mxGeometry x="-0.0029" width="80" relative="1" as="geometry">
            <mxPoint x="133.5" y="190" as="sourcePoint" />
            <mxPoint x="304" y="190" as="targetPoint" />
            <mxPoint as="offset" />
          </mxGeometry>
        </mxCell>
        <mxCell id="5jQq0_R5dznM5S6B8pMf-70" value="makes payments" style="edgeLabel;html=1;align=center;verticalAlign=middle;resizable=0;points=[];" connectable="0" vertex="1" parent="5jQq0_R5dznM5S6B8pMf-69">
          <mxGeometry x="0.0147" y="1" relative="1" as="geometry">
            <mxPoint as="offset" />
          </mxGeometry>
        </mxCell>
      </root>
    </mxGraphModel>
  </diagram>
</mxfile>
